<?xml version="1.0" standalone="no"?>
<!DOCTYPE svg PUBLIC "-//W3C//DTD SVG 20010904//EN"
 "http://www.w3.org/TR/2001/REC-SVG-20010904/DTD/svg10.dtd">
<svg version="1.0" xmlns="http://www.w3.org/2000/svg"
 width="225.000000pt" height="225.000000pt" viewBox="0 0 225.000000 225.000000"
 preserveAspectRatio="xMidYMid meet">

<g transform="translate(0.000000,225.000000) scale(0.100000,-0.100000)"
fill="#000000" stroke="none">
<path d="M940 2241 c-59 -9 -212 -56 -245 -77 -11 -6 -37 -17 -57 -24 -124
-39 -372 -259 -461 -409 -57 -95 -77 -134 -77 -148 0 -7 -4 -21 -10 -31 -65
-118 -98 -334 -80 -523 6 -63 15 -127 19 -144 63 -218 135 -360 249 -492 75
-87 95 -105 196 -180 163 -121 354 -187 576 -202 335 -22 630 88 861 320 128
128 232 297 280 454 6 22 16 51 20 65 30 90 38 338 14 471 -23 134 -93 315
-164 424 -64 99 -190 229 -296 306 -80 59 -270 144 -375 170 -103 24 -341 35
-450 20z m430 -65 c194 -51 303 -104 420 -204 72 -62 180 -173 180 -185 0 -5
18 -29 39 -55 72 -86 149 -279 172 -432 70 -462 -161 -922 -564 -1122 -168
-82 -288 -116 -451 -123 -342 -17 -668 137 -901 425 -32 39 -102 160 -125 215
-12 28 -25 59 -30 70 -25 56 -53 211 -58 317 -7 163 16 286 89 478 18 46 102
184 146 238 89 110 229 223 359 290 105 53 267 102 340 102 24 0 46 5 50 11
12 20 225 4 334 -25z"/>
<path d="M975 2159 c-155 -21 -326 -93 -463 -196 -68 -50 -202 -179 -202 -193
0 -3 -20 -32 -45 -65 -89 -119 -157 -313 -175 -502 -8 -91 5 -245 30 -353 15
-61 77 -206 110 -255 15 -22 35 -55 44 -73 33 -65 252 -264 324 -295 15 -6 38
-18 52 -27 14 -9 61 -29 105 -44 44 -15 91 -34 106 -41 14 -8 82 -19 151 -26
163 -16 299 2 462 61 179 65 274 127 406 266 87 91 120 139 173 246 74 152
100 270 101 458 1 136 -4 186 -29 270 -9 30 -21 75 -27 100 -7 25 -22 62 -35
82 -13 21 -23 40 -23 43 0 9 -67 110 -110 165 -183 234 -472 377 -780 385 -58
2 -136 -1 -175 -6z m376 -38 c188 -44 332 -122 477 -259 60 -56 162 -181 162
-198 0 -6 13 -30 29 -55 59 -90 121 -329 121 -468 0 -91 -24 -245 -47 -311
-11 -30 -26 -73 -33 -95 -19 -59 -101 -204 -133 -235 -15 -15 -38 -41 -51 -58
-13 -18 -65 -65 -116 -106 -188 -151 -398 -225 -648 -227 -168 -1 -344 45
-478 125 -32 20 -63 36 -68 36 -13 0 -173 138 -212 184 -102 119 -181 269
-225 430 -31 115 -31 332 0 470 13 55 27 106 31 115 5 9 28 55 50 103 116 244
342 439 608 527 55 17 97 27 202 45 57 10 250 -3 331 -23z"/>
<path d="M964 2080 c-55 -22 -29 -112 34 -118 35 -4 62 26 62 70 0 49 -42 70
-96 48z m63 -31 c22 -22 -14 -73 -43 -62 -17 6 -18 45 -2 61 15 15 31 15 45 1z"/>
<path d="M1082 2035 c3 -53 20 -76 26 -36 2 11 12 23 23 26 22 7 26 25 4 25
-8 0 -15 5 -15 10 0 6 7 10 15 10 8 0 15 5 15 10 0 6 -16 10 -35 10 l-36 0 3
-55z"/>
<path d="M1253 2062 c-12 -8 -16 -25 -14 -57 2 -31 14 -44 49 -51 25 -5 32 -3
32 9 0 9 -10 17 -22 19 -15 2 -24 11 -26 27 -4 28 15 43 46 36 15 -4 22 -1 22
10 0 11 -11 15 -37 15 -21 0 -43 -4 -50 -8z"/>
<path d="M796 2008 c-6 -29 -7 -30 -24 -15 -10 10 -24 17 -30 17 -21 0 -13
-26 13 -40 13 -7 27 -21 31 -32 10 -32 32 -20 37 20 3 20 8 47 12 60 6 18 4
22 -13 22 -14 0 -21 -9 -26 -32z"/>
<path d="M1388 2003 c-37 -48 -36 -64 1 -57 23 5 30 2 36 -15 3 -12 13 -21 21
-21 12 0 14 13 12 63 -3 53 -6 62 -23 64 -13 2 -30 -10 -47 -34z"/>
<path d="M1500 1950 c-23 -49 -23 -50 -4 -64 27 -21 53 -26 61 -13 3 6 2 12
-3 14 -32 11 -38 22 -26 48 14 30 16 65 4 65 -5 0 -19 -23 -32 -50z"/>
<path d="M618 1952 c-35 -21 -37 -46 -4 -40 20 4 27 -1 37 -23 6 -16 18 -29
25 -29 18 0 18 14 -1 50 -9 18 -11 31 -5 35 16 10 11 25 -7 25 -10 0 -30 -8
-45 -18z"/>
<path d="M1025 1907 c-136 -22 -285 -81 -365 -144 -114 -91 -231 -245 -273
-358 -43 -115 -50 -159 -50 -290 1 -113 5 -140 28 -210 48 -145 100 -229 205
-334 82 -83 109 -103 192 -144 119 -59 211 -80 348 -81 98 -1 246 22 288 44
10 4 46 22 82 38 36 17 95 56 132 86 326 270 387 734 142 1082 -38 54 -74 90
-169 167 -40 33 -177 101 -245 122 -67 20 -247 33 -315 22z m247 -28 c279 -57
496 -252 580 -521 19 -61 22 -96 23 -218 0 -165 -12 -229 -61 -338 -51 -112
-135 -213 -239 -292 -165 -123 -400 -177 -590 -134 -39 8 -77 15 -85 16 -8 0
-62 22 -119 50 -90 43 -116 61 -191 136 -172 172 -238 344 -227 592 6 133 40
242 113 360 61 99 159 196 266 263 45 28 176 77 231 86 76 13 238 13 299 0z"/>
<path d="M960 1834 c-36 -8 -74 -18 -85 -23 -11 -6 -42 -20 -70 -32 -61 -26
-171 -106 -218 -158 -19 -21 -51 -64 -70 -94 -88 -138 -118 -226 -122 -367 -5
-129 13 -220 66 -337 10 -24 19 -45 19 -48 0 -3 19 -32 41 -63 41 -57 87 -104
164 -168 43 -35 176 -105 210 -110 11 -2 52 -11 90 -20 156 -35 347 -4 500 84
131 75 272 244 319 382 68 201 51 407 -50 602 -58 112 -181 229 -304 290 -52
26 -123 54 -158 62 -78 20 -242 19 -332 0z m100 -106 c9 -34 20 -63 26 -65 6
-2 16 15 23 37 14 47 31 44 31 -5 0 -49 17 -52 31 -5 14 45 28 53 30 15 3 -46
4 -50 18 -50 8 0 28 28 45 62 17 35 34 63 38 63 8 0 1 -67 -12 -117 -11 -45 3
-50 34 -11 30 39 39 34 26 -12 -14 -49 3 -57 31 -15 32 47 42 44 33 -10 -3
-25 -3 -45 1 -45 4 0 32 20 61 45 28 25 54 45 57 45 2 0 -11 -32 -30 -71 -19
-39 -32 -74 -29 -76 3 -3 26 7 51 21 25 15 45 24 45 21 0 -10 -34 -60 -50 -72
-30 -23 1 -26 50 -6 28 12 50 18 50 15 0 -4 -14 -22 -30 -41 -26 -29 -37 -51
-27 -51 1 0 36 11 77 25 96 32 102 31 60 -5 -19 -16 -39 -30 -45 -30 -12 -1
-55 -35 -55 -44 0 -3 23 -6 52 -6 l52 0 -42 -31 c-55 -40 -54 -53 3 -46 56 8
60 -8 8 -30 l-38 -17 74 -8 c41 -4 76 -9 77 -11 2 -2 -28 -11 -67 -21 -74 -20
-84 -35 -31 -50 42 -12 40 -22 -5 -34 -37 -9 -36 -11 10 -26 31 -10 18 -24
-29 -31 -55 -8 -51 -13 39 -50 63 -26 94 -55 45 -41 -13 3 -47 9 -75 12 -67 8
-72 -12 -13 -45 52 -29 43 -44 -15 -26 -53 15 -69 3 -25 -20 32 -16 43 -42 13
-30 -34 13 -73 17 -73 9 0 -5 21 -31 45 -57 25 -27 45 -52 45 -57 0 -5 -25 4
-56 21 -31 16 -59 27 -62 25 -2 -3 3 -17 12 -32 21 -30 16 -40 -12 -25 -12 6
-28 11 -37 11 -14 0 -14 -5 5 -35 25 -40 20 -43 -26 -14 l-34 21 0 -21 c0 -11
7 -39 16 -61 9 -23 14 -43 11 -46 -6 -6 -67 74 -67 88 0 4 -5 8 -11 8 -8 0 -9
-13 -5 -40 8 -48 -5 -51 -34 -9 -12 16 -25 28 -28 25 -3 -3 -4 -28 -3 -56 1
-27 -1 -50 -3 -50 -3 0 -15 18 -27 40 -13 22 -26 40 -30 40 -4 0 -10 -21 -14
-47 -15 -109 -27 -116 -45 -28 -13 61 -24 64 -34 10 -8 -43 -24 -45 -33 -5 -8
42 -18 45 -35 9 l-15 -30 -18 43 -17 43 -24 -52 c-35 -76 -46 -77 -41 -4 3 46
1 61 -9 61 -7 0 -18 -9 -24 -20 -16 -30 -33 -24 -28 10 3 16 3 30 1 30 -3 0
-20 -12 -39 -26 -37 -29 -42 -21 -23 35 14 41 6 49 -23 23 -13 -11 -41 -36
-62 -56 -22 -20 -42 -33 -45 -31 -6 6 36 94 56 117 23 26 -2 31 -41 7 -41 -24
-41 -24 -20 26 16 39 13 54 -8 38 -20 -16 -68 -25 -68 -13 0 5 9 19 20 30 11
11 20 24 20 29 0 8 -80 -17 -142 -44 -10 -4 -18 -3 -18 1 0 11 63 55 102 71
44 19 35 36 -14 28 l-43 -7 28 29 c15 16 27 32 27 35 0 7 -61 23 -74 19 -18
-4 16 28 35 34 10 4 19 13 19 21 0 14 -57 20 -137 15 -56 -4 -36 17 37 40 39
11 70 24 70 28 0 4 -12 12 -27 18 -29 11 -27 13 25 29 20 6 14 24 -13 34 -35
13 -31 30 6 30 26 0 29 3 20 14 -6 8 -34 23 -61 35 -54 23 -69 48 -22 36 39
-10 112 -17 112 -11 0 3 -17 17 -37 30 -30 21 -33 26 -20 32 10 3 31 4 47 2
38 -6 38 3 -3 48 -31 37 -31 37 -7 31 90 -26 90 -25 28 42 -85 92 -78 98 40
33 65 -36 77 -30 41 20 -26 36 -20 44 20 23 28 -14 31 -14 31 0 0 9 -5 25 -10
36 -16 29 6 24 38 -8 23 -23 27 -24 30 -10 2 10 -3 36 -12 60 -18 53 -27 117
-16 117 5 0 11 -9 15 -19 8 -27 63 -101 74 -101 6 0 6 12 0 32 -13 48 5 55 31
13 26 -42 37 -37 42 20 l3 40 20 -37 c10 -21 22 -38 26 -38 9 0 17 32 25 103
4 32 10 55 13 52 3 -4 13 -34 21 -67z"/>
<path d="M984 1566 c-89 -32 -177 -93 -229 -158 -28 -34 -67 -117 -80 -168
-17 -66 -19 -185 -4 -249 24 -105 139 -238 254 -292 79 -37 205 -52 280 -33
117 29 163 54 233 122 110 107 159 240 143 387 -5 42 -14 82 -20 88 -6 6 -11
20 -11 32 0 12 -14 43 -31 71 -115 181 -347 268 -535 200z m187 -62 c13 -14
24 -42 28 -76 l6 -53 19 31 c20 33 91 74 130 74 30 0 44 -17 61 -75 16 -53 8
-85 -32 -127 -29 -31 -26 -46 5 -29 41 22 76 13 126 -33 l49 -44 -29 -40 c-36
-50 -72 -72 -118 -72 -44 0 -46 -12 -5 -41 53 -38 80 -138 42 -157 -59 -30
-132 -18 -171 27 l-23 26 7 -39 c6 -32 1 -50 -22 -97 -36 -70 -55 -85 -94 -69
-36 15 -79 76 -87 124 -3 20 -10 36 -14 36 -5 0 -9 -3 -9 -7 0 -5 -12 -21 -25
-36 -24 -27 -126 -64 -145 -52 -14 9 -31 97 -24 129 3 17 18 43 32 58 l25 27
-50 -6 c-42 -4 -58 -1 -92 18 -23 12 -48 33 -57 47 -15 22 -14 26 18 67 32 43
87 75 129 75 16 0 13 5 -17 32 -41 36 -64 82 -64 126 0 38 12 47 85 63 33 7
52 14 43 17 -34 7 -19 72 16 72 38 0 54 -21 49 -62 -5 -35 -7 -37 -27 -26 -11
6 -3 -5 18 -25 22 -21 41 -35 43 -33 3 2 0 21 -6 41 -15 54 -4 90 41 135 l40
40 39 -22 c21 -12 48 -32 60 -44z m89 6 c11 -27 10 -32 -11 -50 -32 -26 -32
-25 -45 15 -9 28 -8 37 5 50 23 23 37 18 51 -15z m240 -175 c7 -8 10 -25 6
-40 -6 -23 -11 -25 -46 -23 -45 3 -46 7 -25 48 17 33 45 39 65 15z m-713 -92
c13 -14 23 -29 23 -33 0 -8 -46 -30 -62 -30 -26 0 -50 65 -31 83 14 15 49 5
70 -20z m740 -209 c13 -20 11 -22 -19 -37 -31 -15 -34 -15 -55 5 -29 27 -29
32 0 46 31 16 57 11 74 -14z m-687 -89 c0 -8 -5 -26 -12 -40 -9 -20 -18 -25
-37 -23 -27 3 -39 33 -27 64 7 19 76 19 76 -1z m484 -106 c45 -21 39 -89 -8
-89 -33 0 -39 13 -31 60 8 45 6 44 39 29z m-259 -61 c15 -31 15 -33 -9 -57
-21 -21 -27 -22 -41 -11 -36 30 -38 50 -9 81 31 32 37 31 59 -13z"/>
<path d="M1075 1350 c-62 -14 -111 -49 -147 -105 -57 -91 -42 -208 37 -285 45
-44 87 -59 173 -60 113 -1 211 104 212 228 0 68 -20 114 -70 162 -55 53 -133
75 -205 60z m115 -40 c45 -12 104 -73 120 -124 24 -76 -3 -153 -76 -213 -44
-36 -51 -38 -115 -38 -60 0 -71 3 -106 31 -90 72 -109 174 -50 260 57 82 133
110 227 84z"/>
<path d="M1090 1266 c0 -10 9 -16 21 -16 24 0 21 23 -4 28 -10 2 -17 -3 -17
-12z"/>
<path d="M1192 1233 c2 -10 12 -18 23 -18 11 0 21 8 23 18 3 13 -3 17 -23 17
-20 0 -26 -4 -23 -17z"/>
<path d="M1000 1205 c0 -8 9 -15 20 -15 11 0 20 7 20 15 0 8 -9 15 -20 15 -11
0 -20 -7 -20 -15z"/>
<path d="M1242 1153 c2 -10 10 -18 18 -18 8 0 16 8 18 18 2 12 -3 17 -18 17
-15 0 -20 -5 -18 -17z"/>
<path d="M1105 1141 c-9 -16 3 -31 26 -31 14 0 19 6 17 17 -4 20 -33 29 -43
14z"/>
<path d="M976 1123 c-12 -12 -6 -33 9 -33 8 0 15 6 15 14 0 17 -14 28 -24 19z"/>
<path d="M1220 1044 c0 -9 7 -14 17 -12 25 5 28 28 4 28 -12 0 -21 -6 -21 -16z"/>
<path d="M1032 1013 c5 -25 28 -28 28 -4 0 12 -6 21 -16 21 -9 0 -14 -7 -12
-17z"/>
<path d="M1135 989 c-4 -6 -4 -13 -1 -16 8 -8 36 5 36 17 0 13 -27 13 -35 -1z"/>
<path d="M1615 1885 c-14 -13 -25 -32 -25 -43 0 -18 49 -62 70 -62 15 0 12 30
-4 36 -21 8 -28 34 -15 50 8 10 22 12 45 8 38 -7 47 9 15 26 -32 16 -60 12
-86 -15z"/>
<path d="M535 1890 c-7 -11 53 -90 67 -90 14 0 9 23 -14 57 -25 36 -44 48 -53
33z"/>
<path d="M436 1815 c-33 -50 -9 -78 47 -57 38 14 46 8 22 -18 -24 -27 -11 -38
23 -19 17 9 28 25 30 41 3 22 -2 29 -23 34 -15 4 -38 1 -51 -5 -31 -14 -34
-14 -34 -1 0 6 12 15 26 20 14 6 22 14 19 20 -11 18 -42 10 -59 -15z"/>
<path d="M1722 1807 c-18 -18 -32 -39 -32 -45 0 -19 50 -62 71 -62 29 0 73 44
65 65 -6 17 -9 16 -36 -10 -27 -26 -32 -28 -46 -14 -14 14 -13 19 11 47 24 28
27 52 6 52 -4 0 -21 -15 -39 -33z"/>
<path d="M349 1700 c-35 -34 -32 -43 21 -70 l39 -20 3 23 c2 16 11 23 31 25
30 4 38 22 8 22 -10 0 -26 11 -35 25 -21 32 -31 31 -67 -5z m51 -9 c0 -11 -29
-35 -35 -29 -10 9 7 38 21 38 8 0 14 -4 14 -9z"/>
<path d="M1855 1719 c-3 -9 -5 -21 -3 -26 2 -6 -8 -19 -21 -30 -13 -11 -21
-25 -18 -30 8 -13 47 -5 47 9 0 6 12 8 30 5 42 -9 44 4 5 49 -27 31 -35 35
-40 23z"/>
<path d="M282 1605 c-18 -39 -15 -48 24 -73 43 -28 63 -26 83 10 20 36 5 50
-19 18 -19 -24 -25 -19 -21 17 1 6 -3 14 -9 18 -5 3 -10 -1 -10 -9 0 -8 -5
-18 -11 -21 -7 -5 -9 4 -7 25 4 41 -14 49 -30 15z"/>
<path d="M1945 1570 c5 -17 0 -23 -29 -35 -20 -9 -36 -20 -36 -25 0 -12 36
-12 65 -1 14 6 24 3 32 -8 8 -11 15 -13 22 -6 14 14 -25 95 -46 95 -10 0 -12
-6 -8 -20z"/>
<path d="M240 1512 c0 -5 9 -17 20 -27 29 -26 25 -35 -15 -35 -24 0 -35 -5
-35 -15 0 -12 13 -15 60 -15 51 0 60 3 60 18 0 10 -15 32 -33 50 -32 31 -57
41 -57 24z"/>
<path d="M1910 1432 c0 -4 9 -13 21 -20 17 -11 20 -20 15 -48 -9 -44 7 -45 57
-3 41 34 46 53 18 69 -23 12 -111 14 -111 2z"/>
<path d="M200 1369 c0 -13 7 -19 24 -19 13 0 38 -3 55 -6 19 -4 31 -2 31 4 0
16 -37 33 -76 37 -27 2 -34 -1 -34 -16z"/>
<path d="M180 1312 c0 -6 8 -16 18 -21 15 -10 15 -11 -5 -17 -14 -4 -23 -14
-23 -25 0 -16 8 -19 55 -19 51 0 72 11 43 24 -9 3 -7 9 6 20 27 21 12 34 -47
42 -31 5 -47 3 -47 -4z"/>
<path d="M1979 1209 c-18 -34 3 -69 40 -69 45 0 66 44 35 74 -22 23 -61 20
-75 -5z"/>
<path d="M172 1188 c3 -7 21 -14 41 -16 24 -2 37 -8 37 -17 0 -21 -31 -34 -64
-28 -23 5 -27 3 -24 -13 3 -15 12 -19 44 -18 64 1 74 8 74 53 0 44 -10 51 -72
51 -27 0 -38 -4 -36 -12z"/>
<path d="M1960 1011 c0 -31 30 -61 60 -61 26 1 50 26 56 59 6 29 4 31 -21 31
-25 0 -26 -2 -20 -31 6 -28 5 -30 -17 -27 -17 2 -24 10 -26 31 -5 38 -32 36
-32 -2z"/>
<path d="M196 991 c-38 -42 8 -102 60 -79 28 13 31 39 8 73 -20 30 -45 32 -68
6z"/>
<path d="M1953 926 c22 -17 22 -26 -3 -26 -13 0 -20 -7 -20 -20 0 -11 6 -20
14 -20 7 0 20 -8 27 -17 12 -15 12 -16 -6 -9 -29 12 -39 12 -45 1 -3 -5 14
-20 38 -33 33 -19 46 -22 55 -13 9 9 8 14 -3 21 -13 9 -13 11 0 20 8 5 20 12
25 14 6 3 2 11 -8 19 -17 14 -16 15 3 20 33 8 23 31 -20 45 -22 6 -48 12 -57
12 -17 -1 -17 -1 0 -14z"/>
<path d="M1899 792 c-1 -4 -1 -15 0 -24 1 -10 -4 -18 -13 -18 -30 0 -16 -35
24 -57 41 -24 68 -14 34 12 -20 15 -18 16 26 19 33 2 20 32 -25 54 -25 12 -46
18 -46 14z"/>
<path d="M230 781 c0 -5 7 -14 15 -21 9 -7 14 -22 13 -33 -2 -11 2 -22 8 -24
17 -6 74 46 74 68 0 16 -8 19 -55 19 -30 0 -55 -4 -55 -9z"/>
<path d="M318 698 c-43 -22 -48 -44 -19 -79 16 -20 23 -22 47 -14 16 6 35 22
43 37 13 23 13 30 1 52 -16 31 -23 31 -72 4z m50 -34 c-5 -26 -35 -41 -50 -26
-11 11 -9 16 6 28 26 19 48 18 44 -2z"/>
<path d="M1821 664 c-24 -31 -19 -41 36 -75 36 -23 54 -20 33 6 -10 13 -9 15
8 15 34 0 35 18 2 50 -38 37 -53 38 -79 4z m49 -18 c0 -3 -4 -8 -10 -11 -5 -3
-10 -1 -10 4 0 6 5 11 10 11 6 0 10 -2 10 -4z"/>
<path d="M387 598 c-18 -25 -26 -46 -22 -59 8 -23 23 -24 72 -2 49 23 48 22
36 34 -6 6 -18 6 -36 0 -31 -12 -31 -11 -15 24 20 44 -5 47 -35 3z"/>
<path d="M1755 578 c-7 -17 34 -100 53 -106 7 -2 12 5 12 15 0 24 18 43 35 37
27 -11 24 15 -4 35 -40 29 -89 38 -96 19z"/>
<path d="M458 508 c-40 -11 -52 -38 -17 -38 14 0 24 -10 32 -30 16 -41 29 -38
50 15 27 65 15 74 -65 53z"/>
<path d="M1680 505 c-32 -39 28 -108 75 -87 31 14 35 47 5 39 -14 -4 -20 0
-20 11 -1 21 -23 52 -37 52 -6 0 -16 -7 -23 -15z"/>
<path d="M548 435 c-41 -49 -36 -72 9 -40 20 14 21 13 19 -18 -1 -41 14 -41
48 0 28 33 28 65 0 42 -14 -11 -15 -9 -30 39 -5 19 -17 13 -46 -23z"/>
<path d="M1600 425 c0 -24 36 -85 51 -85 21 0 49 21 49 37 0 11 -6 14 -22 10
-17 -5 -29 2 -50 26 -23 27 -27 29 -28 12z"/>
<path d="M647 382 c-24 -26 -21 -68 5 -86 12 -9 26 -16 30 -16 14 0 8 31 -7
36 -18 7 -20 30 -3 40 7 5 25 7 40 6 35 -3 36 15 2 28 -36 14 -49 13 -67 -8z"/>
<path d="M1493 379 c-13 -5 -23 -13 -23 -18 0 -18 32 -91 40 -91 15 0 27 105
13 113 -5 3 -18 1 -30 -4z"/>
<path d="M741 314 c-23 -50 -22 -54 21 -72 28 -11 45 -2 33 18 -3 6 -1 10 6
10 6 0 9 8 6 19 -3 14 2 21 17 25 18 5 19 7 6 20 -8 8 -27 18 -42 21 -24 6
-28 3 -47 -41z"/>
<path d="M1364 315 c-37 -57 33 -119 91 -81 27 18 31 36 14 69 -16 29 -28 37
-61 37 -18 0 -33 -8 -44 -25z m74 -38 c3 -22 -1 -27 -17 -27 -26 0 -45 32 -28
49 19 19 42 8 45 -22z"/>
<path d="M852 303 c-6 -10 -13 -33 -17 -50 -5 -26 -3 -33 9 -33 9 0 16 5 16
10 0 6 5 10 10 10 6 0 10 -7 10 -15 0 -8 5 -15 10 -15 6 0 10 5 10 10 0 6 5
10 10 10 6 0 10 -7 10 -16 0 -30 25 -8 33 30 11 43 -4 69 -25 48 -18 -18 -35
-15 -41 8 -6 25 -23 26 -35 3z"/>
<path d="M975 277 c-4 -13 -5 -39 -3 -58 3 -30 7 -34 35 -37 32 -3 33 -3 26
30 -3 18 -10 36 -16 39 -12 8 10 22 22 14 5 -3 12 -1 15 4 8 12 0 17 -41 26
-28 6 -33 4 -38 -18z"/>
<path d="M1218 293 c-32 -5 -37 -29 -8 -38 13 -4 20 -15 20 -30 0 -13 5 -27
11 -31 14 -8 31 16 25 38 -2 9 2 25 10 36 21 30 10 35 -58 25z"/>
<path d="M1066 274 c-3 -9 -6 -33 -6 -55 0 -46 26 -56 32 -11 l4 27 14 -27
c21 -44 47 -36 52 15 6 52 1 67 -18 60 -9 -3 -13 -12 -10 -19 8 -21 -8 -17
-22 6 -15 24 -38 26 -46 4z"/>
</g>
</svg>
